<svg xmlns="http://www.w3.org/2000/svg" viewBox="0 0 64 64" role="img" aria-labelledby="title">
  <title id="title">Due for erdetkriginorge.no</title>
  <rect width="64" height="64" rx="14" fill="#f7f4ec"/>
  <g fill="#0b6b4f">
    <path d="M13 39c7-8.6 17.8-11.2 28.2-6.4 2.7-4.9 7.7-6.8 12-4.5 3 1.6 4.8 4.5 5.3 8.2-5.1-.9-9.9.2-14 3.4-9.2 7.2-21.1 7.2-31.5-.7Z"/>
    <path d="M14.8 38.3 6.5 31.8l13.4 1.6-8.1-8.5 15 6.1Z"/>
    <path d="M56 33.2 62 35l-6 2.2Z"/>
  </g>
  <path fill="#f7f4ec" d="M25.2 35.6c5.7 1.7 11.2.7 17.6-3.5-2.9 7.1-8.3 12.2-16.3 15.1 2.5-5.2 2-8.9-1.3-11.6Z"/>
  <circle cx="51.2" cy="32.2" r="1.5" fill="#f7f4ec"/>
</svg>
